<svg width="117" height="117" viewBox="0 0 117 117" fill="none" xmlns="http://www.w3.org/2000/svg">
<path d="M82.2872 9.68091H33.883C20.5165 9.68091 9.68085 20.5166 9.68085 33.883V82.2873C9.68085 95.6538 20.5165 106.489 33.883 106.489H82.2872C95.6537 106.489 106.489 95.6538 106.489 82.2873V33.883C106.489 20.5166 95.6537 9.68091 82.2872 9.68091Z" stroke="#F27C0E" stroke-width="3" stroke-linecap="round" stroke-linejoin="round"/>
<path d="M77.4469 55.0356C78.0442 59.064 77.3561 63.1782 75.4805 66.7931C73.6048 70.4079 70.6371 73.3392 66.9994 75.1702C63.3617 77.0011 59.2393 77.6384 55.2186 76.9914C51.1978 76.3445 47.4835 74.4461 44.6038 71.5664C41.7241 68.6868 39.8258 64.9724 39.1788 60.9516C38.5318 56.9309 39.1691 52.8085 41 49.1708C42.831 45.5331 45.7623 42.5654 49.3772 40.6897C52.992 38.8141 57.1062 38.126 61.1346 38.7234C65.2438 39.3327 69.048 41.2475 71.9854 44.1848C74.9227 47.1222 76.8375 50.9265 77.4469 55.0356Z" stroke="#F27C0E" stroke-width="3" stroke-linecap="round" stroke-linejoin="round"/>
<path d="M84.7075 31.4628H84.7565" stroke="#F27C0E" stroke-width="3" stroke-linecap="round" stroke-linejoin="round"/>
</svg>
