<svg width="110" height="110" viewBox="0 0 110 110" fill="none" xmlns="http://www.w3.org/2000/svg">
<path d="M105.417 13.7499C101.028 16.8459 96.168 19.2138 91.025 20.7624C88.2646 17.5885 84.5961 15.339 80.5156 14.3179C76.435 13.2969 72.1394 13.5538 68.2095 15.0537C64.2797 16.5536 60.9054 19.2243 58.5428 22.7045C56.1803 26.1847 54.9436 30.3065 55 34.5124V39.0958C46.9454 39.3046 38.9642 37.5183 31.7671 33.8957C24.5701 30.2732 18.3806 24.927 13.75 18.3333C13.75 18.3333 -4.58333 59.5833 36.6667 77.9166C27.2274 84.324 15.9828 87.5367 4.58334 87.0833C45.8333 110 96.25 87.0833 96.25 34.3749C96.2458 33.0983 96.123 31.8248 95.8833 30.5708C100.561 25.9576 103.862 20.1332 105.417 13.7499V13.7499Z" stroke="#F27C0E" stroke-width="3" stroke-linecap="round" stroke-linejoin="round"/>
</svg>
